<mxfile host="Electron" modified="2024-06-02T17:01:15.334Z" agent="Mozilla/5.0 (Macintosh; Intel Mac OS X 10_15_7) AppleWebKit/537.36 (KHTML, like Gecko) draw.io/24.4.8 Chrome/124.0.6367.207 Electron/30.0.6 Safari/537.36" etag="sk9y5ipuLs09X5GwiaY5" version="24.4.8" type="device">
  <diagram id="C5RBs43oDa-KdzZeNtuy" name="Page-1">
    <mxGraphModel dx="1941" dy="774" grid="1" gridSize="10" guides="1" tooltips="1" connect="1" arrows="1" fold="1" page="1" pageScale="1" pageWidth="827" pageHeight="1169" math="0" shadow="0">
      <root>
        <mxCell id="WIyWlLk6GJQsqaUBKTNV-0" />
        <mxCell id="WIyWlLk6GJQsqaUBKTNV-1" parent="WIyWlLk6GJQsqaUBKTNV-0" />
        <mxCell id="fq2aDdvGOsb6xekcNlQ5-17" style="edgeStyle=orthogonalEdgeStyle;rounded=0;orthogonalLoop=1;jettySize=auto;html=1;" edge="1" parent="WIyWlLk6GJQsqaUBKTNV-1" source="fq2aDdvGOsb6xekcNlQ5-0">
          <mxGeometry relative="1" as="geometry">
            <mxPoint x="100" y="217" as="targetPoint" />
          </mxGeometry>
        </mxCell>
        <mxCell id="fq2aDdvGOsb6xekcNlQ5-0" value="User" style="swimlane;fontStyle=1;align=center;verticalAlign=middle;childLayout=stackLayout;horizontal=1;startSize=29;horizontalStack=0;resizeParent=1;resizeParentMax=0;resizeLast=0;collapsible=0;marginBottom=0;html=1;whiteSpace=wrap;" vertex="1" parent="WIyWlLk6GJQsqaUBKTNV-1">
          <mxGeometry x="-140" y="190" width="140" height="54" as="geometry" />
        </mxCell>
        <mxCell id="fq2aDdvGOsb6xekcNlQ5-28" style="edgeStyle=orthogonalEdgeStyle;rounded=0;orthogonalLoop=1;jettySize=auto;html=1;" edge="1" parent="WIyWlLk6GJQsqaUBKTNV-1" source="fq2aDdvGOsb6xekcNlQ5-3" target="fq2aDdvGOsb6xekcNlQ5-25">
          <mxGeometry relative="1" as="geometry" />
        </mxCell>
        <mxCell id="fq2aDdvGOsb6xekcNlQ5-3" value="Courier" style="swimlane;fontStyle=1;align=center;verticalAlign=middle;childLayout=stackLayout;horizontal=1;startSize=29;horizontalStack=0;resizeParent=1;resizeParentMax=0;resizeLast=0;collapsible=0;marginBottom=0;html=1;whiteSpace=wrap;" vertex="1" parent="WIyWlLk6GJQsqaUBKTNV-1">
          <mxGeometry x="330" y="690" width="140" height="54" as="geometry" />
        </mxCell>
        <mxCell id="fq2aDdvGOsb6xekcNlQ5-23" style="edgeStyle=orthogonalEdgeStyle;rounded=0;orthogonalLoop=1;jettySize=auto;html=1;" edge="1" parent="WIyWlLk6GJQsqaUBKTNV-1" source="fq2aDdvGOsb6xekcNlQ5-6" target="fq2aDdvGOsb6xekcNlQ5-18">
          <mxGeometry relative="1" as="geometry" />
        </mxCell>
        <mxCell id="fq2aDdvGOsb6xekcNlQ5-6" value="Restaurant" style="swimlane;fontStyle=1;align=center;verticalAlign=middle;childLayout=stackLayout;horizontal=1;startSize=29;horizontalStack=0;resizeParent=1;resizeParentMax=0;resizeLast=0;collapsible=0;marginBottom=0;html=1;whiteSpace=wrap;" vertex="1" parent="WIyWlLk6GJQsqaUBKTNV-1">
          <mxGeometry x="840" y="190" width="140" height="54" as="geometry" />
        </mxCell>
        <mxCell id="fq2aDdvGOsb6xekcNlQ5-9" value="Order" style="swimlane;fontStyle=1;align=center;verticalAlign=middle;childLayout=stackLayout;horizontal=1;startSize=29;horizontalStack=0;resizeParent=1;resizeParentMax=0;resizeLast=0;collapsible=0;marginBottom=0;html=1;whiteSpace=wrap;" vertex="1" parent="WIyWlLk6GJQsqaUBKTNV-1">
          <mxGeometry x="330" y="320" width="140" height="79" as="geometry" />
        </mxCell>
        <mxCell id="fq2aDdvGOsb6xekcNlQ5-10" value="&amp;lt;&amp;lt;stereotype1&amp;gt;&amp;gt;" style="text;html=1;strokeColor=none;fillColor=none;align=center;verticalAlign=middle;spacingLeft=4;spacingRight=4;overflow=hidden;rotatable=0;points=[[0,0.5],[1,0.5]];portConstraint=eastwest;whiteSpace=wrap;" vertex="1" parent="fq2aDdvGOsb6xekcNlQ5-9">
          <mxGeometry y="29" width="140" height="25" as="geometry" />
        </mxCell>
        <mxCell id="fq2aDdvGOsb6xekcNlQ5-11" value="stereotype property 1" style="text;html=1;strokeColor=none;fillColor=none;align=left;verticalAlign=middle;spacingLeft=4;spacingRight=4;overflow=hidden;rotatable=0;points=[[0,0.5],[1,0.5]];portConstraint=eastwest;whiteSpace=wrap;" vertex="1" parent="fq2aDdvGOsb6xekcNlQ5-9">
          <mxGeometry y="54" width="140" height="25" as="geometry" />
        </mxCell>
        <mxCell id="fq2aDdvGOsb6xekcNlQ5-16" style="edgeStyle=orthogonalEdgeStyle;rounded=0;orthogonalLoop=1;jettySize=auto;html=1;endArrow=diamondThin;endFill=1;" edge="1" parent="WIyWlLk6GJQsqaUBKTNV-1" target="fq2aDdvGOsb6xekcNlQ5-9">
          <mxGeometry relative="1" as="geometry">
            <mxPoint x="240" y="217" as="sourcePoint" />
          </mxGeometry>
        </mxCell>
        <mxCell id="fq2aDdvGOsb6xekcNlQ5-24" style="edgeStyle=orthogonalEdgeStyle;rounded=0;orthogonalLoop=1;jettySize=auto;html=1;endArrow=diamondThin;endFill=1;" edge="1" parent="WIyWlLk6GJQsqaUBKTNV-1" source="fq2aDdvGOsb6xekcNlQ5-18" target="fq2aDdvGOsb6xekcNlQ5-9">
          <mxGeometry relative="1" as="geometry" />
        </mxCell>
        <mxCell id="fq2aDdvGOsb6xekcNlQ5-18" value="RestaurantOrders" style="swimlane;fontStyle=1;align=center;verticalAlign=middle;childLayout=stackLayout;horizontal=1;startSize=29;horizontalStack=0;resizeParent=1;resizeParentMax=0;resizeLast=0;collapsible=0;marginBottom=0;html=1;whiteSpace=wrap;" vertex="1" parent="WIyWlLk6GJQsqaUBKTNV-1">
          <mxGeometry x="570" y="177.5" width="140" height="79" as="geometry" />
        </mxCell>
        <mxCell id="fq2aDdvGOsb6xekcNlQ5-19" value="&amp;lt;&amp;lt;stereotype1&amp;gt;&amp;gt;" style="text;html=1;strokeColor=none;fillColor=none;align=center;verticalAlign=middle;spacingLeft=4;spacingRight=4;overflow=hidden;rotatable=0;points=[[0,0.5],[1,0.5]];portConstraint=eastwest;whiteSpace=wrap;" vertex="1" parent="fq2aDdvGOsb6xekcNlQ5-18">
          <mxGeometry y="29" width="140" height="25" as="geometry" />
        </mxCell>
        <mxCell id="fq2aDdvGOsb6xekcNlQ5-20" value="stereotype property 1" style="text;html=1;strokeColor=none;fillColor=none;align=left;verticalAlign=middle;spacingLeft=4;spacingRight=4;overflow=hidden;rotatable=0;points=[[0,0.5],[1,0.5]];portConstraint=eastwest;whiteSpace=wrap;" vertex="1" parent="fq2aDdvGOsb6xekcNlQ5-18">
          <mxGeometry y="54" width="140" height="25" as="geometry" />
        </mxCell>
        <mxCell id="fq2aDdvGOsb6xekcNlQ5-29" style="edgeStyle=orthogonalEdgeStyle;rounded=0;orthogonalLoop=1;jettySize=auto;html=1;" edge="1" parent="WIyWlLk6GJQsqaUBKTNV-1" source="fq2aDdvGOsb6xekcNlQ5-25" target="fq2aDdvGOsb6xekcNlQ5-9">
          <mxGeometry relative="1" as="geometry" />
        </mxCell>
        <mxCell id="fq2aDdvGOsb6xekcNlQ5-25" value="CourierOrders" style="swimlane;fontStyle=1;align=center;verticalAlign=middle;childLayout=stackLayout;horizontal=1;startSize=29;horizontalStack=0;resizeParent=1;resizeParentMax=0;resizeLast=0;collapsible=0;marginBottom=0;html=1;whiteSpace=wrap;" vertex="1" parent="WIyWlLk6GJQsqaUBKTNV-1">
          <mxGeometry x="330" y="490" width="140" height="79" as="geometry" />
        </mxCell>
        <mxCell id="fq2aDdvGOsb6xekcNlQ5-26" value="&amp;lt;&amp;lt;stereotype1&amp;gt;&amp;gt;" style="text;html=1;strokeColor=none;fillColor=none;align=center;verticalAlign=middle;spacingLeft=4;spacingRight=4;overflow=hidden;rotatable=0;points=[[0,0.5],[1,0.5]];portConstraint=eastwest;whiteSpace=wrap;" vertex="1" parent="fq2aDdvGOsb6xekcNlQ5-25">
          <mxGeometry y="29" width="140" height="25" as="geometry" />
        </mxCell>
        <mxCell id="fq2aDdvGOsb6xekcNlQ5-27" value="stereotype property 1" style="text;html=1;strokeColor=none;fillColor=none;align=left;verticalAlign=middle;spacingLeft=4;spacingRight=4;overflow=hidden;rotatable=0;points=[[0,0.5],[1,0.5]];portConstraint=eastwest;whiteSpace=wrap;" vertex="1" parent="fq2aDdvGOsb6xekcNlQ5-25">
          <mxGeometry y="54" width="140" height="25" as="geometry" />
        </mxCell>
        <mxCell id="fq2aDdvGOsb6xekcNlQ5-30" value="Billing" style="swimlane;fontStyle=1;align=center;verticalAlign=middle;childLayout=stackLayout;horizontal=1;startSize=29;horizontalStack=0;resizeParent=1;resizeParentMax=0;resizeLast=0;collapsible=0;marginBottom=0;html=1;whiteSpace=wrap;" vertex="1" parent="WIyWlLk6GJQsqaUBKTNV-1">
          <mxGeometry x="100" y="450" width="140" height="54" as="geometry" />
        </mxCell>
        <mxCell id="fq2aDdvGOsb6xekcNlQ5-32" value="+ withdrawMoney" style="text;html=1;strokeColor=none;fillColor=none;align=left;verticalAlign=middle;spacingLeft=4;spacingRight=4;overflow=hidden;rotatable=0;points=[[0,0.5],[1,0.5]];portConstraint=eastwest;whiteSpace=wrap;" vertex="1" parent="fq2aDdvGOsb6xekcNlQ5-30">
          <mxGeometry y="29" width="140" height="25" as="geometry" />
        </mxCell>
        <mxCell id="fq2aDdvGOsb6xekcNlQ5-38" style="edgeStyle=orthogonalEdgeStyle;rounded=0;orthogonalLoop=1;jettySize=auto;html=1;" edge="1" parent="WIyWlLk6GJQsqaUBKTNV-1" source="fq2aDdvGOsb6xekcNlQ5-34" target="fq2aDdvGOsb6xekcNlQ5-30">
          <mxGeometry relative="1" as="geometry" />
        </mxCell>
        <mxCell id="fq2aDdvGOsb6xekcNlQ5-34" value="UserOrders" style="swimlane;fontStyle=0;childLayout=stackLayout;horizontal=1;startSize=26;fillColor=none;horizontalStack=0;resizeParent=1;resizeParentMax=0;resizeLast=0;collapsible=1;marginBottom=0;whiteSpace=wrap;html=1;" vertex="1" parent="WIyWlLk6GJQsqaUBKTNV-1">
          <mxGeometry x="100" y="150" width="140" height="114" as="geometry" />
        </mxCell>
        <mxCell id="fq2aDdvGOsb6xekcNlQ5-35" value="+ createOrder" style="text;strokeColor=none;fillColor=none;align=left;verticalAlign=top;spacingLeft=4;spacingRight=4;overflow=hidden;rotatable=0;points=[[0,0.5],[1,0.5]];portConstraint=eastwest;whiteSpace=wrap;html=1;" vertex="1" parent="fq2aDdvGOsb6xekcNlQ5-34">
          <mxGeometry y="26" width="140" height="26" as="geometry" />
        </mxCell>
        <mxCell id="fq2aDdvGOsb6xekcNlQ5-37" value="+ getCurrentOrders&lt;div&gt;&lt;br&gt;&lt;/div&gt;&lt;div&gt;+ getHitstory&lt;/div&gt;" style="text;strokeColor=none;fillColor=none;align=left;verticalAlign=top;spacingLeft=4;spacingRight=4;overflow=hidden;rotatable=0;points=[[0,0.5],[1,0.5]];portConstraint=eastwest;whiteSpace=wrap;html=1;" vertex="1" parent="fq2aDdvGOsb6xekcNlQ5-34">
          <mxGeometry y="52" width="140" height="62" as="geometry" />
        </mxCell>
      </root>
    </mxGraphModel>
  </diagram>
</mxfile>
